<svg width="1200" height="800" xmlns="http://www.w3.org/2000/svg" viewBox="-47.6505 -18.32325 412.971 109.9395"><path fill-rule="evenodd" clip-rule="evenodd" fill="#c2121c" d="M277.633 1.258h-20.031l-5.005 6.47h20.019m34.837 2.048c-1.867 0-3.377 1.466-3.377 3.248 0 1.821 1.51 3.287 3.377 3.287 1.854 0 3.358-1.466 3.358-3.287 0-1.782-1.504-3.248-3.358-3.248m0 5.899c-1.523 0-2.735-1.16-2.735-2.651 0-1.445 1.212-2.619 2.735-2.619 1.504 0 2.716 1.174 2.716 2.619 0 1.491-1.212 2.651-2.716 2.651"/><path fill-rule="evenodd" clip-rule="evenodd" fill="#c2121c" d="M309.183 12.174c0-.304-.148-.628-.421-.79-.285-.162-.597-.176-.921-.176h-1.633v3.656h.544v-1.691h.668l1.082 1.691h.629l-1.134-1.691c.662-.012 1.186-.285 1.186-.999m-1.808.558h-.622v-1.114h.979c.473 0 .888.064.888.551 0 .648-.727.563-1.245.563M49.647 32.815c0-4.603-3.725-8.33-8.33-8.33-4.597 0-8.327 3.728-8.327 8.33 0 4.59 3.73 8.33 8.327 8.33 4.606 0 8.33-3.74 8.33-8.33m28.371-8.33c-4.6 0-8.33 3.728-8.33 8.33 0 4.597 3.73 8.324 8.33 8.324 4.593 0 8.33-3.728 8.33-8.324 0-4.602-3.737-8.33-8.33-8.33"/><path fill-rule="evenodd" clip-rule="evenodd" fill="#c2121c" d="M45.547 1.271H0v13.932h15.108v35.439h15.321V15.203h15.118m6.634-13.782v47.316c0 5.886-2.939 8.232-11.191 8.232v15.338c14.65 0 26.52-8.933 26.52-23.57l-.006-47.316m74.167-.843c-5.89 0-11.205 2.379-15.063 6.236-3.863-3.857-9.286-6.236-15.176-6.236-11.769 0-22.676 9.536-22.676 21.302v30.332h15.225l.032-30.332c0-4.104 3.325-7.43 7.419-7.43 4.116 0 7.436 3.326 7.436 7.43v30.332h15.341l.026-30.332c0-4.104 3.339-7.43 7.436-7.43 4.097 0 7.436 3.326 7.436 7.43l-.026 30.332h15.276V21.88C164.356 10.114 153.44.578 141.671.578m144.195 31.388L302.838 9.79H283.61l-7.371 9.515-7.357-9.515h-20.42l17.464 22.863-19.617 25.717h19.914l10.016-13.646 21.996 28.569h19.435"/><path fill-rule="evenodd" clip-rule="evenodd" fill="#c2121c" d="M244.098 7.858h2.548l-4.9-6.49h-19.532l17.38 22.669-17.38 22.58V1.368h-15.318V3.54C202.98 1.284 198.495 0 193.645 0c-14.793 0-26.785 11.986-26.785 26.793 0 14.8 11.992 26.799 26.785 26.799 4.83 0 9.361-1.479 13.264-3.708l-.013 2.333h31.116l11.487-15.221 5.153 6.625 8.583-10.949m-69.591 6.334c-6.748 0-12.213-5.465-12.213-12.213 0-6.755 5.465-12.214 12.213-12.214 6.755 0 12.22 5.459 12.22 12.214 0 6.749-5.465 12.213-12.22 12.213"/></svg>